custom-analysis
version=1
nRows=6
nColumns=98
inDegrees=no

This file contains tibia displacement and acting force.

Units are S.I. units (seconds, meters, Newtons, ...)
Angles are in degrees.

endheader
time	APT	SIT	knee_angle	aACL_R_force	pACL_R_force	aPCL_R_force	pPCL_R_force	aMCL_R_force	mMCL_R_force	pMCL_R_force	aLCL_R_force	mLCL_R_force	pLCL_R_force	aPCL_L_force	pPCL_L_force	aMCL_L_force	aLCL_L_force	aACL_R_length	pACL_R_length	aPCL_R_length	pPCL_R_length	aMCL_R_length	mMCL_R_length	pMCL_R_length	aLCL_R_length	mLCL_R_length	pLCL_R_length	aPCL_L_length	pPCL_L_length	aMCL_L_length	aLCL_L_length	aACL_R_strain	pACL_R_strain	aPCL_R_strain	pPCL_R_strain	aMCL_R_strain	mMCL_R_strain	pMCL_R_strain	aLCL_R_strain	mLCL_R_strain	pLCL_R_strain	aPCL_L_strain	pPCL_L_strain	aMCL_L_strain	aLCL_L_strain	femur_lat_meniscii_r.femur_lat_r.force.X	femur_lat_meniscii_r.femur_lat_r.force.Y	femur_lat_meniscii_r.femur_lat_r.force.Z	femur_lat_meniscii_r.femur_lat_r.torque.X	femur_lat_meniscii_r.femur_lat_r.torque.Y	femur_lat_meniscii_r.femur_lat_r.torque.Z	femur_lat_meniscii_r.meniscus_lat_r.force.X	femur_lat_meniscii_r.meniscus_lat_r.force.Y	femur_lat_meniscii_r.meniscus_lat_r.force.Z	femur_lat_meniscii_r.meniscus_lat_r.torque.X	femur_lat_meniscii_r.meniscus_lat_r.torque.Y	femur_lat_meniscii_r.meniscus_lat_r.torque.Z	femur_med_meniscii_r.femur_med_r.force.X	femur_med_meniscii_r.femur_med_r.force.Y	femur_med_meniscii_r.femur_med_r.force.Z	femur_med_meniscii_r.femur_med_r.torque.X	femur_med_meniscii_r.femur_med_r.torque.Y	femur_med_meniscii_r.femur_med_r.torque.Z	femur_med_meniscii_r.meniscus_med_r.force.X	femur_med_meniscii_r.meniscus_med_r.force.Y	femur_med_meniscii_r.meniscus_med_r.force.Z	femur_med_meniscii_r.meniscus_med_r.torque.X	femur_med_meniscii_r.meniscus_med_r.torque.Y	femur_med_meniscii_r.meniscus_med_r.torque.Z	femur_med_tibia_r.tibia_upper_r.force.X	femur_med_tibia_r.tibia_upper_r.force.Y	femur_med_tibia_r.tibia_upper_r.force.Z	femur_med_tibia_r.tibia_upper_r.torque.X	femur_med_tibia_r.tibia_upper_r.torque.Y	femur_med_tibia_r.tibia_upper_r.torque.Z	femur_med_tibia_r.femur_med_r.force.X	femur_med_tibia_r.femur_med_r.force.Y	femur_med_tibia_r.femur_med_r.force.Z	femur_med_tibia_r.femur_med_r.torque.X	femur_med_tibia_r.femur_med_r.torque.Y	femur_med_tibia_r.femur_med_r.torque.Z	femur_lat_tibia_r.tibia_upper_r.force.X	femur_lat_tibia_r.tibia_upper_r.force.Y	femur_lat_tibia_r.tibia_upper_r.force.Z	femur_lat_tibia_r.tibia_upper_r.torque.X	femur_lat_tibia_r.tibia_upper_r.torque.Y	femur_lat_tibia_r.tibia_upper_r.torque.Z	femur_lat_tibia_r.femur_lat_r.force.X	femur_lat_tibia_r.femur_lat_r.force.Y	femur_lat_tibia_r.femur_lat_r.force.Z	femur_lat_tibia_r.femur_lat_r.torque.X	femur_lat_tibia_r.femur_lat_r.torque.Y	femur_lat_tibia_r.femur_lat_r.torque.Z	femur_lat_meniscii_force_r	femur_med_meniscii_force_r	femur_lat_tibia_force_r	femur_med_tibia_force_r
      0.16424256	      0.01281005	      0.01723819	     56.75231880	     -3.41964401	      0.00000000	    576.56084754	    374.63149882	      0.00000000	      0.00000000	      0.00000000	      0.00000000	      0.00000000	      0.00000000	      0.00000000	      0.00000000	      0.00000001	      0.00000000	      0.03118335	      0.02390158	      0.03494006	      0.03243002	      0.05952620	      0.05920874	      0.05631174	      0.05253081	      0.04780865	      0.04293529	      0.01525851	      0.01651186	      0.06550154	      0.04489616	      0.00573599	     -0.04617638	      0.12364441	      0.08505889	     -0.00834288	     -0.00977966	     -0.04114318	     -0.06156772	     -0.15110374	     -0.17972728	      0.00000079	     -0.32847694	      0.00000060	     -0.00000086	     97.85615330	    180.14504803	     20.56826233	    -12.65090923	      2.36658777	     38.19935743	    -97.85615330	   -180.14504803	    -20.56826233	      4.98188984	     -2.93758710	      3.28802857	     23.55176263	     21.39563317	     11.83487420	     -4.28689769	     -0.53573578	      9.45061251	    -23.55176263	    -21.39563317	    -11.83487420	     -0.25099981	      0.25703130	      0.08379753	   -759.87036535	   -694.82360761	    221.68343912	    -16.07156083	     17.15217456	     -1.33136117	    759.87036535	    694.82360761	   -221.68343912	    102.73989525	    -13.75939304	    309.04078638	      0.00000000	      0.00000000	      0.00000000	      0.00000000	      0.00000000	      0.00000000	      0.00000000	      0.00000000	      0.00000000	      0.00000000	      0.00000000	      0.00000000	    206.03669208	     33.94882750	      0.00000000	   1053.24563375
      0.16444159	      0.01282310	      0.01727638	     56.85963825	     -3.39080074	      0.00000000	    578.55978254	    375.53998603	      0.00000000	      0.00000000	      0.00000000	      0.00000000	      0.00000000	      0.00000000	      0.00000000	      0.00000000	      0.00000001	      0.00000000	      0.03118149	      0.02390072	      0.03495185	      0.03243674	      0.05953623	      0.05921059	      0.05630819	      0.05252412	      0.04779725	      0.04292128	      0.01525851	      0.01651186	      0.06550154	      0.04489616	      0.00567606	     -0.04621086	      0.12402346	      0.08528355	     -0.00817577	     -0.00974877	     -0.04120373	     -0.06168717	     -0.15130620	     -0.17999493	      0.00000079	     -0.32847694	      0.00000060	     -0.00000086	     98.25382545	    180.75400911	     20.43000736	    -12.60680721	      2.37419034	     38.34911283	    -98.25382545	   -180.75400911	    -20.43000736	      4.99205167	     -2.94401240	      3.31394041	     23.60413521	     21.24604612	     11.73349501	     -4.24864554	     -0.53671414	      9.47126817	    -23.60413521	    -21.24604612	    -11.73349501	     -0.25061028	      0.25950414	      0.08178137	   -762.02607575	   -694.38377834	    221.89135851	    -16.05040120	     17.19412028	     -1.32057018	    762.02607575	    694.38377834	   -221.89135851	    102.80701516	    -13.79444296	    309.90168538	      0.00000000	      0.00000000	      0.00000000	      0.00000000	      0.00000000	      0.00000000	      0.00000000	      0.00000000	      0.00000000	      0.00000000	      0.00000000	      0.00000000	    206.74431364	     33.85593862	      0.00000000	   1054.55599507
      0.16476929	      0.01284448	      0.01733932	     57.03636479	     -3.34507533	      0.00000000	    581.86531363	    377.11163362	      0.00000000	      0.00000000	      0.00000000	      0.00000000	      0.00000000	      0.00000000	      0.00000000	      0.00000000	      0.00000001	      0.00000000	      0.03117848	      0.02389936	      0.03497116	      0.03244774	      0.05955273	      0.05921365	      0.05630241	      0.05251298	      0.04777837	      0.04289815	      0.01525851	      0.01651186	      0.06550154	      0.04489616	      0.00557889	     -0.04626507	      0.12464444	      0.08565168	     -0.00790100	     -0.00969754	     -0.04130205	     -0.06188622	     -0.15164136	     -0.18043688	      0.00000079	     -0.32847694	      0.00000060	     -0.00000086	    100.67377417	    178.63422470	     19.67170940	    -12.23361513	      2.43197561	     39.36353289	   -100.67377417	   -178.63422470	    -19.67170940	      4.90842887	     -2.99160185	      3.20635924	     24.04142357	     21.18301698	     11.56170512	     -4.18041874	     -0.54767007	      9.64852012	    -24.04142357	    -21.18301698	    -11.56170512	     -0.25304337	      0.27249998	      0.07458490	   -766.25587775	   -693.85363324	    222.09983080	    -16.01270732	     17.26605211	     -1.31324156	    766.25587775	    693.85363324	   -222.09983080	    102.86334491	    -13.85884793	    311.59674015	      0.00000000	      0.00000000	      0.00000000	      0.00000000	      0.00000000	      0.00000000	      0.00000000	      0.00000000	      0.00000000	      0.00000000	      0.00000000	      0.00000000	    205.99119202	     34.06439902	      0.00000000	   1057.31228565
      0.16532773	      0.01288032	      0.01744675	     57.33755453	     -3.60314148	      0.00000000	    587.66047222	    380.28703168	      0.00000000	      0.00000000	      0.00000000	      0.00000000	      0.00000000	      0.00000000	      0.00000000	      0.00000000	      0.00000001	      0.00000000	      0.03117326	      0.02389705	      0.03500395	      0.03246652	      0.05958078	      0.05921897	      0.05629285	      0.05249367	      0.04774597	      0.04285862	      0.01525851	      0.01651186	      0.06550154	      0.04489616	      0.00541063	     -0.04635735	      0.12569907	      0.08627989	     -0.00743364	     -0.00960861	     -0.04146485	     -0.06223123	     -0.15221663	     -0.18119209	      0.00000079	     -0.32847694	      0.00000060	     -0.00000086	    104.75717500	    173.39622594	     17.98376191	    -11.37260367	      2.52746068	     41.09972451	   -104.75717500	   -173.39622594	    -17.98376191	      4.69135778	     -3.06127441	      2.96612413	     24.17168371	     20.92693432	     11.40467147	     -4.12280567	     -0.54825214	      9.69837937	    -24.17168371	    -20.92693432	    -11.40467147	     -0.25116772	      0.27473683	      0.07394406	   -771.99710372	   -694.08527010	    223.41122687	    -15.99227839	     17.39576489	     -1.22438652	    771.99710372	    694.08527010	   -223.41122687	    103.37432748	    -13.95370157	    313.86657215	      0.00000000	      0.00000000	      0.00000000	      0.00000000	      0.00000000	      0.00000000	      0.00000000	      0.00000000	      0.00000000	      0.00000000	      0.00000000	      0.00000000	    203.38075763	     33.94515289	      0.00000000	   1061.90699527
      0.16554097	      0.01289369	      0.01748783	     57.45254301	     -3.75737048	      0.00000000	    589.93068993	    381.64890406	      0.00000000	      0.00000000	      0.00000000	      0.00000000	      0.00000000	      0.00000000	      0.00000000	      0.00000000	      0.00000001	      0.00000000	      0.03117114	      0.02389608	      0.03501650	      0.03247376	      0.05959148	      0.05922104	      0.05628931	      0.05248620	      0.04773354	      0.04284351	      0.01525851	      0.01651186	      0.06550154	      0.04489616	      0.00534222	     -0.04639589	      0.12610265	      0.08652226	     -0.00725547	     -0.00957400	     -0.04152525	     -0.06236471	     -0.15243745	     -0.18148072	      0.00000079	     -0.32847694	      0.00000060	     -0.00000086	    105.27474965	    173.36603894	     18.22595672	    -11.47443198	      2.53924285	     41.30604111	   -105.27474965	   -173.36603894	    -18.22595672	      4.69953245	     -3.07991919	      2.96931736	     24.24172574	     20.86687711	     11.37333505	     -4.11144783	     -0.54877696	      9.72534897	    -24.24172574	    -20.86687711	    -11.37333505	     -0.25080825	      0.27527996	      0.07438375	   -774.54897026	   -693.92359902	    223.99057430	    -15.98556993	     17.45357285	     -1.20659179	    774.54897026	    693.92359902	   -223.99057430	    103.60052500	    -13.99706113	    314.88331014	      0.00000000	      0.00000000	      0.00000000	      0.00000000	      0.00000000	      0.00000000	      0.00000000	      0.00000000	      0.00000000	      0.00000000	      0.00000000	      0.00000000	    203.64366396	     33.94761520	      0.00000000	   1063.77998006
      0.16575420	      0.01290688	      0.01752893	     57.56752030	     -3.86989115	      0.00000000	    592.18175636	    382.95366465	      0.00000000	      0.00000000	      0.00000000	      0.00000000	      0.00000000	      0.00000000	      0.00000000	      0.00000000	      0.00000001	      0.00000000	      0.03116894	      0.02389507	      0.03502907	      0.03248105	      0.05960217	      0.05922313	      0.05628582	      0.05247868	      0.04772107	      0.04282840	      0.01525851	      0.01651186	      0.06550154	      0.04489616	      0.00527136	     -0.04643634	      0.12650702	      0.08676629	     -0.00707736	     -0.00953894	     -0.04158458	     -0.06249909	     -0.15265884	     -0.18176940	      0.00000079	     -0.32847694	      0.00000060	     -0.00000086	    105.50032568	    173.72068840	     18.65263195	    -11.65931610	      2.54738261	     41.38846765	   -105.50032568	   -173.72068840	    -18.65263195	      4.72005091	     -3.09832457	      2.99158327	     24.36141116	     20.89120674	     11.33315360	     -4.09467382	     -0.55039030	      9.77137174	    -24.36141116	    -20.89120674	    -11.33315360	     -0.25231573	      0.27702306	      0.07670543	   -777.04591562	   -693.62175586	    223.41563713	    -15.94449535	     17.47515083	     -1.19102608	    777.04591562	    693.62175586	   -223.41563713	    103.34612287	    -14.02808785	    315.87820047	      0.00000000	      0.00000000	      0.00000000	      0.00000000	      0.00000000	      0.00000000	      0.00000000	      0.00000000	      0.00000000	      0.00000000	      0.00000000	      0.00000000	    204.10075202	     34.03470645	      0.00000000	   1065.28214202
